<svg xmlns="http://www.w3.org/2000/svg" viewBox="0 0 512 512">
  <rect width="512" height="512" rx="112" fill="#d4e3ff"/>
  <circle cx="256" cy="270" r="142" fill="#4caf50"/>
  <circle cx="183" cy="184" r="58" fill="#7ec97f"/>
  <circle cx="329" cy="184" r="58" fill="#7ec97f"/>
  <circle cx="208" cy="236" r="18" fill="#ffffff"/>
  <circle cx="304" cy="236" r="18" fill="#ffffff"/>
  <circle cx="210" cy="236" r="8" fill="#1f2937"/>
  <circle cx="302" cy="236" r="8" fill="#1f2937"/>
  <path d="M211 314c30 27 60 27 90 0" fill="none" stroke="#1f2937" stroke-width="18" stroke-linecap="round"/>
  <path d="M111 322c-28 23-45 54-44 86 44 1 78-18 101-54" fill="#4a90e2"/>
  <path d="M401 322c28 23 45 54 44 86-44 1-78-18-101-54" fill="#4a90e2"/>
  <path d="M195 122c23-39 99-39 122 0" fill="none" stroke="#ffeb3b" stroke-width="22" stroke-linecap="round"/>
</svg>
